<svg xmlns="http://www.w3.org/2000/svg" width="960" height="320" viewBox="0 0 960 320">             <rect width="100%" height="100%" fill="#0B1020" />             <line x1="60" y1="20" x2="60" y2="275" stroke="#94A3B8" stroke-width="1" />             <line x1="60" y1="275" x2="940" y2="275" stroke="#94A3B8" stroke-width="1" />             <text x="60" y="14" fill="#E2E8F0" font-size="14">Trust Score Over Time</text>             <polyline fill="none" stroke="#38BDF8" stroke-width="3" points="60.00,20.00 74.92,20.00 89.83,20.00 104.75,20.00 119.66,20.00 134.58,20.00 149.49,20.00 164.41,20.00 179.32,20.00 194.24,20.00 209.15,20.00 224.07,20.00 238.98,20.00 253.90,20.00 268.81,20.00 283.73,20.00 298.64,20.00 313.56,20.00 328.47,20.00 343.39,20.00 358.31,71.00 373.22,122.00 388.14,173.00 403.05,224.00 417.97,275.00 432.88,275.00 447.80,275.00 462.71,275.00 477.63,275.00 492.54,275.00 507.46,275.00 522.37,275.00 537.29,275.00 552.20,275.00 567.12,275.00 582.03,275.00 596.95,275.00 611.86,275.00 626.78,275.00 641.69,275.00 656.61,275.00 671.53,275.00 686.44,275.00 701.36,275.00 716.27,275.00 731.19,275.00 746.10,275.00 761.02,275.00 775.93,275.00 790.85,275.00 805.76,275.00 820.68,275.00 835.59,275.00 850.51,275.00 865.42,275.00 880.34,275.00 895.25,275.00 910.17,275.00 925.08,275.00 940.00,275.00" />             <circle cx="358.31" cy="71.00" r="4" fill="#C0392B" /><circle cx="373.22" cy="122.00" r="4" fill="#C0392B" /><circle cx="388.14" cy="173.00" r="4" fill="#C0392B" /><circle cx="403.05" cy="224.00" r="4" fill="#C0392B" /><circle cx="417.97" cy="275.00" r="4" fill="#C0392B" /><circle cx="432.88" cy="275.00" r="4" fill="#C0392B" /><circle cx="447.80" cy="275.00" r="4" fill="#C0392B" /><circle cx="462.71" cy="275.00" r="4" fill="#C0392B" /><circle cx="477.63" cy="275.00" r="4" fill="#C0392B" /><circle cx="492.54" cy="275.00" r="4" fill="#C0392B" /><circle cx="507.46" cy="275.00" r="4" fill="#C0392B" /><circle cx="522.37" cy="275.00" r="4" fill="#C0392B" /><circle cx="537.29" cy="275.00" r="4" fill="#C0392B" /><circle cx="552.20" cy="275.00" r="4" fill="#C0392B" /><circle cx="567.12" cy="275.00" r="4" fill="#C0392B" /><circle cx="582.03" cy="275.00" r="4" fill="#C0392B" /><circle cx="596.95" cy="275.00" r="4" fill="#C0392B" /><circle cx="611.86" cy="275.00" r="4" fill="#C0392B" /><circle cx="626.78" cy="275.00" r="4" fill="#C0392B" /><circle cx="641.69" cy="275.00" r="4" fill="#C0392B" /><circle cx="656.61" cy="275.00" r="4" fill="#C0392B" /><circle cx="671.53" cy="275.00" r="4" fill="#C0392B" /><circle cx="686.44" cy="275.00" r="4" fill="#C0392B" /><circle cx="701.36" cy="275.00" r="4" fill="#C0392B" /><circle cx="716.27" cy="275.00" r="4" fill="#C0392B" /><circle cx="731.19" cy="275.00" r="4" fill="#C0392B" /><circle cx="746.10" cy="275.00" r="4" fill="#C0392B" /><circle cx="761.02" cy="275.00" r="4" fill="#C0392B" /><circle cx="775.93" cy="275.00" r="4" fill="#C0392B" /><circle cx="790.85" cy="275.00" r="4" fill="#C0392B" /><circle cx="805.76" cy="275.00" r="4" fill="#C0392B" /><circle cx="820.68" cy="275.00" r="4" fill="#C0392B" /><circle cx="835.59" cy="275.00" r="4" fill="#C0392B" /><circle cx="850.51" cy="275.00" r="4" fill="#C0392B" /><circle cx="865.42" cy="275.00" r="4" fill="#C0392B" /><circle cx="880.34" cy="275.00" r="4" fill="#C0392B" /><circle cx="895.25" cy="275.00" r="4" fill="#C0392B" /><circle cx="910.17" cy="275.00" r="4" fill="#C0392B" /><circle cx="925.08" cy="275.00" r="4" fill="#C0392B" /><circle cx="940.00" cy="275.00" r="4" fill="#C0392B" />             <text x="60" y="293" fill="#CBD5E1" font-size="12">0</text>             <text x="60" y="32" fill="#CBD5E1" font-size="12">1</text>             </svg>