<svg xmlns="http://www.w3.org/2000/svg" width="960" height="320" viewBox="0 0 960 320">             <rect width="100%" height="100%" fill="#0B1020" />             <line x1="60" y1="20" x2="60" y2="275" stroke="#94A3B8" stroke-width="1" />             <line x1="60" y1="275" x2="940" y2="275" stroke="#94A3B8" stroke-width="1" />             <text x="60" y="14" fill="#E2E8F0" font-size="14">Trust Score Over Time</text>             <polyline fill="none" stroke="#38BDF8" stroke-width="3" points="60.00,20.00 74.92,20.00 89.83,20.00 104.75,20.00 119.66,20.00 134.58,20.00 149.49,20.00 164.41,20.00 179.32,20.00 194.24,20.00 209.15,20.00 224.07,20.00 238.98,20.00 253.90,20.00 268.81,20.00 283.73,20.00 298.64,20.00 313.56,20.00 328.47,20.00 343.39,20.00 358.31,20.00 373.22,20.00 388.14,20.00 403.05,20.00 417.97,20.00 432.88,20.00 447.80,20.00 462.71,20.00 477.63,20.00 492.54,20.00 507.46,24.87 522.37,29.74 537.29,34.61 552.20,39.48 567.12,44.35 582.03,49.22 596.95,54.09 611.86,58.96 626.78,63.83 641.69,68.71 656.61,73.58 671.53,78.45 686.44,83.32 701.36,88.19 716.27,93.06 731.19,97.93 746.10,102.80 761.02,107.67 775.93,112.54 790.85,117.41 805.76,122.28 820.68,127.15 835.59,132.02 850.51,136.89 865.42,141.76 880.34,146.63 895.25,151.50 910.17,156.37 925.08,161.24 940.00,166.12" />             <circle cx="507.46" cy="24.87" r="4" fill="#F39C12" /><circle cx="522.37" cy="29.74" r="4" fill="#F39C12" /><circle cx="537.29" cy="34.61" r="4" fill="#F39C12" /><circle cx="552.20" cy="39.48" r="4" fill="#F39C12" /><circle cx="567.12" cy="44.35" r="4" fill="#F39C12" /><circle cx="582.03" cy="49.22" r="4" fill="#F39C12" /><circle cx="596.95" cy="54.09" r="4" fill="#F39C12" /><circle cx="611.86" cy="58.96" r="4" fill="#F39C12" /><circle cx="626.78" cy="63.83" r="4" fill="#F39C12" /><circle cx="641.69" cy="68.71" r="4" fill="#F39C12" /><circle cx="656.61" cy="73.58" r="4" fill="#F39C12" /><circle cx="671.53" cy="78.45" r="4" fill="#F39C12" /><circle cx="686.44" cy="83.32" r="4" fill="#F39C12" /><circle cx="701.36" cy="88.19" r="4" fill="#F39C12" /><circle cx="716.27" cy="93.06" r="4" fill="#F39C12" /><circle cx="731.19" cy="97.93" r="4" fill="#F39C12" /><circle cx="746.10" cy="102.80" r="4" fill="#F39C12" /><circle cx="761.02" cy="107.67" r="4" fill="#F39C12" /><circle cx="775.93" cy="112.54" r="4" fill="#F39C12" /><circle cx="790.85" cy="117.41" r="4" fill="#F39C12" /><circle cx="805.76" cy="122.28" r="4" fill="#F39C12" /><circle cx="820.68" cy="127.15" r="4" fill="#F39C12" /><circle cx="835.59" cy="132.02" r="4" fill="#F39C12" /><circle cx="850.51" cy="136.89" r="4" fill="#F39C12" /><circle cx="865.42" cy="141.76" r="4" fill="#F39C12" /><circle cx="880.34" cy="146.63" r="4" fill="#F39C12" /><circle cx="895.25" cy="151.50" r="4" fill="#F39C12" /><circle cx="910.17" cy="156.37" r="4" fill="#F39C12" /><circle cx="925.08" cy="161.24" r="4" fill="#F39C12" /><circle cx="940.00" cy="166.12" r="4" fill="#F39C12" />             <text x="60" y="293" fill="#CBD5E1" font-size="12">0</text>             <text x="60" y="32" fill="#CBD5E1" font-size="12">1</text>             </svg>