<svg xmlns="http://www.w3.org/2000/svg" width="960" height="320" viewBox="0 0 960 320">             <rect width="100%" height="100%" fill="#0B1020" />             <line x1="60" y1="20" x2="60" y2="275" stroke="#94A3B8" stroke-width="1" />             <line x1="60" y1="275" x2="940" y2="275" stroke="#94A3B8" stroke-width="1" />             <text x="60" y="14" fill="#E2E8F0" font-size="14">Trust Score Over Time</text>             <polyline fill="none" stroke="#38BDF8" stroke-width="3" points="60.00,20.00 74.92,20.00 89.83,20.00 104.75,20.00 119.66,20.00 134.58,20.00 149.49,20.00 164.41,20.00 179.32,20.00 194.24,20.00 209.15,20.00 224.07,20.00 238.98,20.00 253.90,20.00 268.81,20.00 283.73,20.00 298.64,20.00 313.56,20.00 328.47,20.00 343.39,20.00 358.31,20.00 373.22,20.00 388.14,20.00 403.05,20.00 417.97,20.00 432.88,20.00 447.80,20.00 462.71,20.00 477.63,20.00 492.54,20.00 507.46,20.00 522.37,20.00 537.29,20.00 552.20,20.00 567.12,20.00 582.03,20.00 596.95,20.00 611.86,20.00 626.78,20.00 641.69,20.00 656.61,20.00 671.53,20.00 686.44,20.00 701.36,20.00 716.27,20.00 731.19,20.00 746.10,20.00 761.02,20.00 775.93,20.00 790.85,20.00 805.76,20.00 820.68,20.00 835.59,20.00 850.51,20.00 865.42,20.00 880.34,20.00 895.25,20.00 910.17,20.00 925.08,20.00 940.00,20.00" />                          <text x="60" y="293" fill="#CBD5E1" font-size="12">0</text>             <text x="60" y="32" fill="#CBD5E1" font-size="12">1</text>             </svg>